<svg width="71" height="105" viewBox="0 0 71 105" fill="none" xmlns="http://www.w3.org/2000/svg">
<g clip-path="url(#clip0)">
<path d="M25.9945 88.6169C25.0719 79.1201 20.9166 76.7953 18.751 76.2314V61.2366C18.751 60.554 18.1871 60 17.4899 60C16.7927 60 16.2289 60.554 16.2289 61.2366V64.711C15.3893 64.8759 14.247 65.2518 13.0588 66.1004C10.2128 68.1339 8.51232 71.8084 8.00566 77.0228C7.94849 77.6153 8.32961 78.1638 8.9125 78.3287C8.97079 78.3451 9.62653 78.5232 10.5816 78.5232C11.7238 78.5232 13.292 78.2682 14.7716 77.1756C15.3119 76.7766 15.7973 76.2974 16.2277 75.7434V89.9524C14.2392 90.8625 9.92695 93.9347 8.98424 103.643C8.9181 104.322 9.42589 104.925 10.1197 104.991C10.1377 104.993 10.2296 105.001 10.382 105.001C11.0737 105.001 13.0028 104.84 14.8389 103.203C17.435 100.889 18.751 96.7189 18.751 90.8075V87.6155C19.1612 88.142 19.6197 88.5905 20.1286 88.9598C21.3975 89.8787 22.7045 90.0975 23.6618 90.0975C24.4935 90.0975 25.0618 89.9315 25.1112 89.9172C25.6817 89.7435 26.0516 89.2005 25.9945 88.6169ZM13.2842 75.1784C12.3616 75.872 11.3786 76.0457 10.6612 76.0567C11.5882 69.6276 14.5026 67.7887 16.1952 67.2666C16.0024 71.1643 15.0059 73.8847 13.2842 75.1784ZM13.2034 101.318C12.6766 101.801 12.1498 102.094 11.6947 102.269C12.3773 97.7488 13.8738 95.2372 15.0732 93.8984C15.4565 93.4708 15.8276 93.1367 16.1661 92.8773C15.8533 97.8334 14.4241 100.196 13.2034 101.318ZM21.5903 86.9417C20.4099 86.0657 19.0245 83.9498 18.7868 78.8694C19.1141 79.0233 19.4841 79.2465 19.8697 79.5696C21.1139 80.6127 22.6765 82.8473 23.339 87.6133C22.8345 87.5672 22.2057 87.399 21.5903 86.9417Z" fill="#040328"/>
</g>
<g filter="url(#filter0_d)">
<path d="M67 24.1169V57C67 59.7614 64.7614 62 62 62H9C6.23858 62 4 59.7614 4 57V24.0106C4 22.3851 4.79019 20.861 6.11865 19.9243L31.5941 1.96086C33.2722 0.777623 35.503 0.740553 37.2195 1.86739L64.744 19.9371C66.152 20.8615 67 22.4326 67 24.1169Z" fill="#040328"/>
<path d="M17.4167 35.298C16.3147 35.298 15.4217 35.792 14.7377 36.628V31.555C14.7377 30.947 14.2627 30.453 13.6737 30.453C13.0657 30.453 12.5717 30.947 12.5717 31.555V42.974C12.5717 43.582 13.0657 44.095 13.6737 44.095C14.2627 44.095 14.7377 43.582 14.7377 42.974V38.528C15.1747 37.673 15.8967 37.179 16.6947 37.179C17.6637 37.179 18.2337 37.806 18.2337 38.813V42.974C18.2337 43.582 18.7277 44.095 19.3167 44.095C19.9057 44.095 20.3997 43.582 20.3997 42.974V38.357C20.3997 36.381 19.0317 35.298 17.4167 35.298ZM27.7534 44.19C30.2994 44.19 32.2564 42.309 32.2564 39.725C32.2564 37.141 30.2994 35.298 27.7534 35.298C25.2264 35.298 23.2694 37.141 23.2694 39.725C23.2694 42.309 25.2264 44.19 27.7534 44.19ZM27.7534 42.29C26.5374 42.29 25.4734 41.34 25.4734 39.725C25.4734 38.091 26.5374 37.179 27.7534 37.179C28.9884 37.179 30.0524 38.091 30.0524 39.725C30.0524 41.34 28.9884 42.29 27.7534 42.29ZM45.0963 35.279C43.9373 35.279 43.0633 35.735 42.3033 36.704C41.8093 35.697 40.8213 35.279 39.8333 35.279C38.7693 35.279 37.9713 35.754 37.3443 36.552V36.514C37.3443 35.906 36.8693 35.412 36.2613 35.412C35.6723 35.412 35.1783 35.906 35.1783 36.514V42.974C35.1783 43.582 35.6723 44.095 36.2613 44.095C36.8693 44.095 37.3443 43.582 37.3443 42.974V38.414C37.7433 37.654 38.3513 37.198 39.0923 37.198C39.7953 37.198 40.4793 37.578 40.4793 38.756V42.974C40.4793 43.582 40.9733 44.095 41.5623 44.095C42.1513 44.095 42.6453 43.582 42.6453 42.974V38.376C43.0443 37.654 43.6523 37.198 44.3743 37.198C45.0963 37.198 45.7803 37.578 45.7803 38.775V42.974C45.7803 43.582 46.2743 44.095 46.8633 44.095C47.4523 44.095 47.9463 43.582 47.9463 42.974V38.319C47.9463 36.153 46.5593 35.279 45.0963 35.279ZM55.144 35.298C52.617 35.298 50.812 37.179 50.812 39.725C50.812 42.423 52.826 44.19 55.486 44.19C56.436 44.19 57.291 43.981 57.918 43.677C58.336 43.487 58.545 43.145 58.545 42.784C58.545 42.309 58.184 41.91 57.69 41.91C57.481 41.91 57.31 41.967 57.006 42.043C56.664 42.157 56.189 42.29 55.657 42.29C54.232 42.29 53.168 41.549 52.94 40.162H57.728C58.222 40.162 58.545 40.105 58.754 39.858C58.944 39.63 59.001 39.383 59.001 39.06C59.001 37.103 57.576 35.298 55.144 35.298ZM52.997 38.775C53.244 37.654 54.004 36.989 55.106 36.989C56.303 36.989 57.044 37.806 57.063 38.775H52.997Z" fill="white"/>
</g>
<defs>
<filter id="filter0_d" x="0" y="1.04718" width="71" height="68.9528" filterUnits="userSpaceOnUse" color-interpolation-filters="sRGB">
<feFlood flood-opacity="0" result="BackgroundImageFix"/>
<feColorMatrix in="SourceAlpha" type="matrix" values="0 0 0 0 0 0 0 0 0 0 0 0 0 0 0 0 0 0 127 0"/>
<feOffset dy="4"/>
<feGaussianBlur stdDeviation="2"/>
<feColorMatrix type="matrix" values="0 0 0 0 0 0 0 0 0 0 0 0 0 0 0 0 0 0 0.25 0"/>
<feBlend mode="normal" in2="BackgroundImageFix" result="effect1_dropShadow"/>
<feBlend mode="normal" in="SourceGraphic" in2="effect1_dropShadow" result="shape"/>
</filter>
<clipPath id="clip0">
<rect width="18" height="45" fill="white" transform="translate(8 60)"/>
</clipPath>
</defs>
</svg>
