<svg width="141" height="195" viewBox="0 0 141 195" fill="none" xmlns="http://www.w3.org/2000/svg">
<g clip-path="url(#clip0)">
<path d="M107.675 92.9387H87.1707C86.1189 92.9375 85.0819 93.1867 84.1453 93.6658C83.2088 94.1449 82.3995 94.84 81.7842 95.694C81.169 96.5479 80.7655 97.536 80.607 98.5768C80.4485 99.6176 80.5396 100.681 80.8727 101.68C81.272 103.041 82.1004 104.236 83.2342 105.087C84.368 105.938 85.7463 106.399 87.1634 106.401H107.762C108.694 106.405 109.615 106.21 110.466 105.83C111.316 105.449 112.075 104.891 112.693 104.194C113.311 103.496 113.774 102.674 114.049 101.784C114.325 100.893 114.408 99.954 114.292 99.0288C114.153 97.3681 113.396 95.8202 112.17 94.6922C110.944 93.5642 109.34 92.9384 107.675 92.9387Z" fill="#040328"/>
<path d="M107.675 113.072H87.1702C85.4094 113.072 83.7208 113.772 82.4758 115.019C81.2307 116.265 80.5312 117.955 80.5312 119.718C80.5312 121.48 81.2307 123.171 82.4758 124.417C83.7208 125.663 85.4094 126.364 87.1702 126.364H107.664C108.646 126.365 109.615 126.148 110.503 125.728C111.39 125.308 112.173 124.695 112.794 123.934C113.782 122.752 114.323 121.261 114.323 119.72C114.323 118.179 113.782 116.687 112.794 115.505C112.173 114.746 111.392 114.134 110.507 113.713C109.622 113.293 108.655 113.074 107.675 113.072Z" fill="#040328"/>
<path d="M107.772 133.053H87.1691C85.7519 133.054 84.3733 133.515 83.2393 134.366C82.1054 135.217 81.2771 136.413 80.8784 137.774C80.549 138.771 80.4606 139.832 80.6204 140.87C80.7802 141.908 81.1836 142.893 81.7977 143.744C82.4117 144.596 83.2187 145.289 84.1525 145.768C85.0862 146.246 86.1201 146.496 87.1691 146.497H107.663C109.324 146.496 110.925 145.871 112.148 144.746C113.372 143.622 114.13 142.078 114.273 140.421C114.306 140.156 114.323 139.89 114.324 139.622C114.324 137.882 113.634 136.213 112.405 134.981C111.177 133.749 109.51 133.056 107.772 133.053Z" fill="#040328"/>
<path d="M63.2875 172.107L50.648 180.67C49.617 181.368 48.4154 181.772 47.1724 181.839C45.9293 181.905 44.6916 181.632 43.592 181.048C42.4924 180.464 41.5724 179.591 40.9307 178.523C40.289 177.455 39.9498 176.233 39.9495 174.986V105.449H60.5666C62.3081 105.449 63.9783 104.757 65.2097 103.524C66.4412 102.292 67.133 100.62 67.133 98.8764C67.133 97.1331 66.4412 95.4612 65.2097 94.2285C63.9783 92.9958 62.3081 92.3032 60.5666 92.3032H39.9495V66.2141C39.9092 64.4981 39.1999 62.8659 37.9732 61.6664C36.7465 60.467 35.0997 59.7955 33.3849 59.7955C31.6701 59.7955 30.0234 60.467 28.7966 61.6664C27.5699 62.8659 26.8606 64.4981 26.8203 66.2141V174.986C26.8166 178.622 27.8031 182.19 29.6736 185.307C31.5442 188.423 34.2281 190.97 37.4366 192.674C40.6452 194.378 44.257 195.174 47.8837 194.976C51.5104 194.779 55.0148 193.596 58.0198 191.554L70.6592 182.99C72.1025 182.013 73.0989 180.502 73.4292 178.79C73.7595 177.077 73.3967 175.304 72.4206 173.859C71.4444 172.414 69.935 171.417 68.2242 171.086C66.5135 170.755 64.7416 171.119 63.2983 172.096L63.2875 172.107Z" fill="#040328"/>
<path d="M137.861 32.0086L87.1981 0.966041C86.1231 0.306671 84.881 -0.0285935 83.6206 0.000389368C82.3602 0.0293722 81.1348 0.421368 80.0912 1.12945L30.473 34.7504C29.7584 35.2342 29.146 35.8542 28.6707 36.5749C28.1955 37.2957 27.8667 38.1031 27.7031 38.951C27.5396 39.799 27.5445 40.6708 27.7175 41.5169C27.8906 42.3629 28.2284 43.1666 28.7117 43.8819C29.1951 44.5973 29.8144 45.2104 30.5344 45.6861C31.2544 46.1619 32.061 46.491 32.9081 46.6547C33.7551 46.8184 34.6261 46.8135 35.4713 46.6403C36.3165 46.4671 37.1193 46.1289 37.834 45.6451L83.9512 14.3955L127.87 41.3054V99.7044C127.849 100.58 128.004 101.452 128.325 102.267C128.645 103.082 129.126 103.825 129.737 104.452C130.349 105.079 131.079 105.577 131.886 105.917C132.693 106.257 133.559 106.432 134.435 106.432C135.31 106.432 136.176 106.257 136.983 105.917C137.79 105.577 138.52 105.079 139.132 104.452C139.744 103.825 140.224 103.082 140.544 102.267C140.865 101.452 141.02 100.58 140.999 99.7044V37.6048C140.997 36.4813 140.708 35.377 140.159 34.3973C139.609 33.4176 138.818 32.5952 137.861 32.0086Z" fill="#040328"/>
<path d="M0.416828 81.6628C0.416828 81.6628 -4.97778 104.211 22.9567 104.211C22.9567 104.211 26.4358 81.6628 0.416828 81.6628Z" fill="#040328"/>
</g>
<defs>
<clipPath id="clip0">
<rect width="141" height="195" fill="white"/>
</clipPath>
</defs>
</svg>
