<svg width="40" height="55" viewBox="0 0 40 55" fill="none" xmlns="http://www.w3.org/2000/svg">
<g opacity="0.3" clip-path="url(#clip0)">
<path d="M30.5461 25.9968H24.7292C24.4309 25.9965 24.1367 26.0662 23.871 26.2002C23.6053 26.3342 23.3757 26.5287 23.2012 26.7675C23.0266 27.0064 22.9121 27.2828 22.8672 27.5739C22.8222 27.8651 22.8481 28.1626 22.9426 28.4419C23.0558 28.8226 23.2908 29.1569 23.6125 29.3949C23.9341 29.633 24.3252 29.7619 24.7272 29.7625H30.5708C30.8351 29.7636 31.0965 29.7091 31.3377 29.6027C31.579 29.4962 31.7944 29.3402 31.9697 29.1451C32.145 28.9499 32.2762 28.7201 32.3544 28.471C32.4326 28.2219 32.4561 27.9592 32.4233 27.7004C32.3839 27.2358 32.169 26.8028 31.8213 26.4873C31.4736 26.1718 31.0184 25.9967 30.5461 25.9968Z" fill="white"/>
<path d="M30.546 31.6285H24.7291C24.2296 31.6285 23.7505 31.8244 23.3973 32.173C23.0441 32.5216 22.8457 32.9945 22.8457 33.4875C22.8457 33.9805 23.0441 34.4533 23.3973 34.802C23.7505 35.1506 24.2296 35.3464 24.7291 35.3464H30.5429C30.8214 35.3469 31.0965 35.2862 31.3482 35.1686C31.5999 35.0511 31.822 34.8797 31.9982 34.6669C32.2785 34.3363 32.4321 33.919 32.4321 33.488C32.4321 33.057 32.2785 32.6397 31.9982 32.3091C31.8221 32.0968 31.6006 31.9256 31.3495 31.8079C31.0984 31.6903 30.824 31.629 30.546 31.6285Z" fill="white"/>
<path d="M30.5741 37.2177H24.7294C24.3273 37.2181 23.9362 37.3469 23.6145 37.585C23.2929 37.823 23.0579 38.1574 22.9448 38.5382C22.8513 38.8171 22.8262 39.1139 22.8716 39.4042C22.9169 39.6945 23.0314 39.97 23.2055 40.2082C23.3797 40.4464 23.6087 40.6403 23.8736 40.7742C24.1385 40.908 24.4318 40.978 24.7294 40.9782H30.5432C31.0145 40.9779 31.4686 40.8032 31.8157 40.4885C32.1629 40.1739 32.3779 39.7422 32.4183 39.2787C32.4278 39.2046 32.4327 39.13 32.4327 39.0553C32.4327 38.5684 32.237 38.1015 31.8885 37.757C31.54 37.4124 31.0673 37.2185 30.5741 37.2177Z" fill="white"/>
<path d="M17.9547 48.1418L14.369 50.5371C14.0765 50.7324 13.7356 50.8454 13.383 50.864C13.0304 50.8826 12.6792 50.8062 12.3673 50.6428C12.0553 50.4794 11.7944 50.2352 11.6123 49.9365C11.4303 49.6379 11.3341 49.2959 11.334 48.9473V29.4964H17.1828C17.6768 29.4964 18.1506 29.3027 18.5 28.9579C18.8493 28.6131 19.0456 28.1454 19.0456 27.6578C19.0456 27.1701 18.8493 26.7025 18.5 26.3577C18.1506 26.0129 17.6768 25.8191 17.1828 25.8191H11.334V18.5215C11.3225 18.0415 11.1213 17.5849 10.7733 17.2494C10.4253 16.9139 9.95814 16.7261 9.47167 16.7261C8.9852 16.7261 8.51804 16.9139 8.17004 17.2494C7.82203 17.5849 7.62081 18.0415 7.60938 18.5215V48.9473C7.60832 49.9643 7.88817 50.9624 8.41882 51.8341C8.94948 52.7059 9.71087 53.4183 10.6211 53.8949C11.5313 54.3715 12.556 54.5941 13.5848 54.5389C14.6137 54.4837 15.6078 54.1527 16.4603 53.5815L20.046 51.1862C20.4554 50.9129 20.738 50.4902 20.8317 50.0112C20.9255 49.5322 20.8225 49.036 20.5456 48.6319C20.2687 48.2278 19.8405 47.9488 19.3552 47.8563C18.8699 47.7638 18.3672 47.8654 17.9578 48.1387L17.9547 48.1418Z" fill="white"/>
<path d="M39.1104 8.95346L24.738 0.270231C24.433 0.0857915 24.0807 -0.00798879 23.7231 0.000118304C23.3655 0.00822539 23.0179 0.117874 22.7218 0.315941L8.64576 9.7204C8.44303 9.85573 8.2693 10.0292 8.13447 10.2308C7.99965 10.4324 7.90636 10.6582 7.85997 10.8954C7.81357 11.1326 7.81496 11.3765 7.86406 11.6131C7.91315 11.8498 8.00899 12.0746 8.1461 12.2747C8.28321 12.4748 8.45892 12.6463 8.66318 12.7793C8.86743 12.9124 9.09625 13.0045 9.33655 13.0503C9.57686 13.0961 9.82395 13.0947 10.0637 13.0462C10.3035 12.9978 10.5312 12.9032 10.734 12.7679L23.8169 4.02673L36.2761 11.554V27.8893C36.2703 28.1344 36.3141 28.3781 36.4051 28.6061C36.496 28.8342 36.6323 29.042 36.8058 29.2173C36.9793 29.3926 37.1866 29.532 37.4154 29.6271C37.6443 29.7222 37.8901 29.7712 38.1384 29.7712C38.3867 29.7712 38.6325 29.7222 38.8614 29.6271C39.0902 29.532 39.2975 29.3926 39.471 29.2173C39.6445 29.042 39.7807 28.8342 39.8717 28.6061C39.9627 28.3781 40.0065 28.1344 40.0007 27.8893V10.5188C40.0002 10.2046 39.9181 9.89567 39.7623 9.62162C39.6064 9.34758 39.382 9.11754 39.1104 8.95346Z" fill="white"/>
<path d="M0.118803 22.8428C0.118803 22.8428 -1.41158 29.15 6.51308 29.15C6.51308 29.15 7.50006 22.8428 0.118803 22.8428Z" fill="white"/>
</g>
<defs>
<clipPath id="clip0">
<rect width="40" height="54.5455" fill="white"/>
</clipPath>
</defs>
</svg>
