<svg width="184" height="144" viewBox="0 0 184 144" fill="none" xmlns="http://www.w3.org/2000/svg">
<g clip-path="url(#clip0)">
<path d="M181.748 61.7119C180.29 61.7119 178.72 61.7119 177.393 59.6783C185.866 52.6727 184.094 45.9644 183.242 43.8851C181.634 39.9654 177.784 37.5302 174.479 38.3258C173.311 38.608 169.549 40.062 170.096 46.9049C170.475 51.6432 171.067 55.3595 171.966 58.2091C171.698 58.3845 171.421 58.5599 171.138 58.7327C168.295 60.479 166.392 60.0495 164.578 57.2482C163.869 56.1071 163.291 54.8885 162.855 53.6157C164.815 50.2019 166.438 45.9314 167.686 40.855C170.018 31.3786 170.81 19.5508 169.705 10.72C168.802 3.51099 166.844 0.00561523 163.723 0.00561523C160.554 0.00561523 159.12 4.07277 158.651 5.4073C156.416 11.7622 155.194 23.7425 155.623 35.2449C155.8 40.0493 156.365 47.06 158.078 52.9701C155.992 56.0484 153.58 58.0184 150.948 58.6997C148.971 59.229 146.938 59.5167 144.892 59.5563C148.637 57.3118 151.18 52.9675 151.18 47.9878C151.18 40.7127 145.753 34.7925 139.082 34.7925C132.41 34.7925 126.971 40.7127 126.971 47.9878C126.971 48.1175 126.91 48.8648 126.539 52.1744C125.492 61.5187 119.653 61.6865 119.192 61.7145C119.161 61.7145 119.192 61.7145 119.129 61.7145C117.658 61.7145 116.086 61.7144 114.743 59.6249C123.216 52.4515 121.377 45.7305 120.501 43.6563C118.894 39.8433 115.094 37.4692 111.854 38.2699C110.689 38.5597 106.929 40.034 107.479 46.9126C107.858 51.6406 108.448 55.3544 109.344 58.2015C109.069 58.387 108.784 58.5726 108.494 58.7581C105.804 60.4613 103.591 61.4603 101.918 61.7246C100.493 61.7246 98.9864 61.6509 97.6895 59.6351C106.157 52.449 104.315 45.728 103.44 43.6461C101.833 39.8332 98.0327 37.459 94.793 38.2597C93.6273 38.5495 89.8678 40.0238 90.4179 46.9024C90.7963 51.6305 91.3867 55.3443 92.2825 58.1913C92.0074 58.3768 91.7223 58.5624 91.4322 58.748C88.7475 60.4485 86.5322 61.4399 84.8569 61.7119C83.4313 61.7119 81.925 61.6382 80.6281 59.6224C89.1008 52.449 87.2614 45.728 86.3859 43.6538C84.7786 39.8408 80.9813 37.4666 77.7391 38.2673C76.5734 38.5571 72.8139 40.0315 73.364 46.91C73.7424 51.6381 74.3328 55.3519 75.2285 58.1989C74.9535 58.3845 74.6684 58.57 74.3783 58.7556C71.6154 60.507 69.3572 61.5111 67.6667 61.7424C66.0746 61.9585 65.6154 61.3891 65.4186 61.1451C63.1478 58.326 65.2773 48.1175 67.5128 41.7651C67.6973 41.2414 67.6787 40.6669 67.4606 40.1565C67.2426 39.6461 66.8412 39.2375 66.3369 39.0126C65.8326 38.7876 65.2625 38.7629 64.7409 38.9433C64.2192 39.1238 63.7845 39.4961 63.5237 39.9857C61.7802 43.2674 60.6297 44.7366 59.9913 45.3823C59.9661 45.2933 59.9408 45.1993 59.9156 45.0976C59.9223 42.4861 59.7808 39.8763 59.4917 37.281C59.4248 36.7352 59.1577 36.2342 58.7428 35.8766C58.328 35.519 57.7954 35.3307 57.2497 35.3485C56.704 35.3663 56.1847 35.5891 55.7938 35.973C55.4028 36.3569 55.1684 36.8743 55.1368 37.4234C54.9803 40.1052 55.0005 43.1047 55.5304 45.5272C55.5102 52.3905 54.5211 62.05 49.6237 66.7908C47.1359 69.2031 43.8911 70.0419 39.7027 69.3531C36.9676 68.9057 34.8734 67.4593 33.299 64.9377C29.3301 58.5827 29.3856 47.0829 30.7103 36.1295C33.0652 35.1534 35.5639 34.1671 38.2065 33.1707C59.4968 25.1991 95.0074 15.4786 143.278 14.4618C143.565 14.4558 143.848 14.3928 144.111 14.2765C144.374 14.1602 144.612 13.9928 144.811 13.7839C145.01 13.575 145.166 13.3287 145.271 13.059C145.375 12.7893 145.426 12.5016 145.42 12.2121C145.414 11.9227 145.351 11.6373 145.236 11.3722C145.12 11.1071 144.954 10.8676 144.747 10.6672C144.54 10.4668 144.295 10.3095 144.027 10.2043C143.76 10.0991 143.474 10.048 143.187 10.054C94.306 11.0835 58.2882 20.9464 36.68 29.04C34.8507 29.7238 33.0997 30.4076 31.4117 31.0863C32.6067 23.5241 34.2326 16.0375 36.2814 8.66356C36.4453 8.10265 36.3814 7.4991 36.1036 6.98568C35.8258 6.47226 35.357 6.09103 34.8003 5.92586C34.2435 5.76068 33.6444 5.8251 33.1348 6.10493C32.6252 6.38476 32.2468 6.85709 32.0828 7.418C29.715 15.8247 27.9169 24.3837 26.701 33.036C9.82371 40.2526 1.31316 46.3762 0.899362 46.6787C0.428595 47.0215 0.112275 47.5387 0.0200048 48.1165C-0.0722654 48.6942 0.067069 49.2853 0.407346 49.7596C0.747623 50.2338 1.26097 50.5525 1.83447 50.6455C2.40796 50.7384 2.99462 50.5981 3.46539 50.2553C3.55875 50.1866 11.1534 44.7239 26.1081 38.1046C25.0206 49.1139 25.3511 60.474 29.5976 67.2864C31.8507 70.891 35.0147 73.0516 39.0038 73.7075C40.1237 73.8961 41.257 73.993 42.3924 73.9972C46.4597 73.9972 49.9063 72.6475 52.6692 69.9657C57.5237 65.2529 59.2445 57.1948 59.7339 50.2553C60.0773 50.2467 60.4174 50.1867 60.7432 50.0773C59.8071 55.1613 59.5422 60.8629 62.0048 63.9234C63.014 65.1715 64.9089 66.562 68.2394 66.1121C70.586 65.7918 73.3513 64.6047 76.6945 62.4872L77.0603 62.2508C78.8821 64.9885 81.438 66.1299 84.9982 66.1299C85.0968 66.1303 85.1954 66.1243 85.2934 66.1121C87.6399 65.7918 90.4052 64.6047 93.7484 62.4872L94.1143 62.2508C95.936 64.9885 98.4919 66.1299 102.052 66.1299C102.15 66.1303 102.248 66.1244 102.345 66.1121C104.694 65.7918 107.459 64.6047 110.802 62.4872L111.168 62.2508C112.99 64.9885 115.546 66.1299 119.106 66.1299C119.767 66.1299 123.516 65.9138 126.948 61.3433V72.195C124.957 72.6077 123.08 73.4516 121.445 74.6683C116.507 78.2932 113.558 84.8362 112.68 94.1398C112.631 94.6521 112.762 95.1653 113.049 95.5906C113.337 96.0159 113.763 96.3264 114.254 96.4682C115.201 96.7083 116.174 96.8245 117.151 96.8139C119.769 96.8363 122.323 95.9924 124.42 94.4118C125.373 93.677 126.222 92.814 126.943 91.8469V117.185C123.491 118.81 116.01 124.285 114.373 141.588C114.318 142.17 114.495 142.75 114.864 143.2C115.234 143.651 115.766 143.935 116.343 143.99C116.495 144.005 116.647 144.011 116.8 144.008C117.998 144.008 121.341 143.718 124.531 140.803C129.035 136.68 131.318 129.247 131.318 118.708V113.004C131.998 113.914 132.802 114.723 133.707 115.406C135.479 116.734 137.63 117.447 139.839 117.439C140.69 117.45 141.539 117.342 142.362 117.119C142.843 116.97 143.258 116.658 143.538 116.236C143.817 115.814 143.944 115.308 143.896 114.803C142.296 97.8765 135.085 93.7305 131.328 92.7239V59.4063C131.679 59.6961 132.042 59.9808 132.436 60.2604C136.097 62.8583 142.463 65.4333 152.008 62.9626C154.935 62.2 157.574 60.4714 159.882 57.8227C160.806 59.691 161.921 61.2696 163.271 62.3728C165.29 64.0251 168.688 65.3876 173.406 62.4897L173.803 62.2356C175.624 64.9682 178.18 66.1095 181.738 66.1095C182.318 66.1095 182.874 65.8773 183.285 65.464C183.695 65.0507 183.925 64.4901 183.925 63.9056C183.925 63.3211 183.695 62.7606 183.285 62.3472C182.874 61.9339 182.318 61.7017 181.738 61.7017L181.748 61.7119ZM77.7265 46.544C77.5498 44.3554 77.9788 42.7488 78.7837 42.5505C78.8744 42.5275 78.9677 42.5164 79.0612 42.5175C80.0149 42.5175 81.5642 43.4885 82.3589 45.3747C83.6205 48.3844 82.3589 51.8745 78.9502 55.2019C78.443 53.0819 78.0242 50.2705 77.7265 46.544ZM94.7804 46.544C94.6037 44.3554 95.0327 42.7488 95.8376 42.5505C95.9283 42.5275 96.0216 42.5164 96.1151 42.5175C97.0689 42.5175 98.6181 43.4885 99.4129 45.3747C100.674 48.3844 99.4128 51.8745 96.0041 55.2019C95.4969 53.0819 95.0781 50.2705 94.7804 46.544ZM111.834 46.544C111.658 44.3554 112.087 42.7488 112.891 42.5505C112.982 42.5274 113.075 42.5163 113.169 42.5175C114.123 42.5175 115.672 43.4885 116.467 45.3747C117.728 48.3844 116.467 51.8745 113.058 55.2019C112.551 53.0819 112.132 50.2705 111.834 46.544ZM121.854 90.8403C120.547 91.8416 118.954 92.3908 117.312 92.4062C118.919 80.9444 123.976 77.6628 126.913 76.7375C126.569 83.6847 124.828 88.5348 121.854 90.8403ZM121.712 137.445C120.953 138.171 120.065 138.747 119.093 139.14C120.572 128.972 124.258 124.397 126.855 122.363C126.317 131.217 123.834 135.434 121.712 137.445ZM139.299 113.016C138.198 112.91 137.149 112.495 136.271 111.819C134.225 110.256 131.818 106.481 131.406 97.4113C133.912 98.5984 137.845 102.195 139.299 113.009V113.016ZM139.061 39.2053C143.321 39.2053 146.785 43.1454 146.785 47.9904C146.785 52.8354 143.321 56.7754 139.061 56.7754C134.802 56.7754 131.338 52.8354 131.338 47.9904C131.338 43.1454 134.802 39.1977 139.061 39.1977V39.2053ZM161.162 46.9787C160.19 41.5566 159.749 34.795 159.948 27.4284C160.276 15.3286 162.242 6.91722 163.695 4.75909C164.318 5.8318 165.35 8.82624 165.713 15.1812C166.052 22.2901 165.544 29.4144 164.2 36.4015C163.518 40.0153 162.501 43.5566 161.162 46.9787ZM175.705 55.2909C175.2 53.1607 174.764 50.3214 174.461 46.544C174.287 44.3833 174.713 42.7997 175.503 42.6065C175.591 42.5856 175.681 42.5753 175.771 42.576C176.752 42.576 178.4 43.6156 179.2 45.5653C180.433 48.5801 179.139 52.0346 175.703 55.2909H175.705Z" fill="#040328"/>
</g>
<defs>
<clipPath id="clip0">
<rect width="184" height="144" fill="white"/>
</clipPath>
</defs>
</svg>
