<svg width="255" height="80" viewBox="0 0 255 80" fill="none" xmlns="http://www.w3.org/2000/svg">
<g clip-path="url(#clip0)">
<path d="M101.599 34.2849C100.783 34.2849 99.9062 34.2849 99.1643 33.1552C103.901 29.2631 102.91 25.5363 102.434 24.3811C101.535 22.2035 99.3829 20.8506 97.5352 21.2927C96.8822 21.4494 94.7792 22.2572 95.0853 26.0588C95.2968 28.6912 95.6283 30.7558 96.1304 32.3389C95.9809 32.4364 95.8258 32.5338 95.6678 32.6298C94.0782 33.6 93.0147 33.3614 92.0006 31.8051C91.6041 31.1712 91.2809 30.4941 91.0373 29.7871C92.1332 27.8905 93.0401 25.518 93.7383 22.6978C95.0415 17.4331 95.4844 10.8621 94.8666 5.95611C94.3617 1.95109 93.2672 0.00366211 91.5225 0.00366211C89.7509 0.00366211 88.9498 2.26319 88.6875 3.0046C87.4378 6.53511 86.7551 13.1908 86.9949 19.5811C87.0936 22.2501 87.4096 26.145 88.3673 29.4284C87.2008 31.1385 85.8524 32.233 84.3813 32.6115C83.2761 32.9056 82.1396 33.0654 80.9963 33.0874C83.0894 31.8404 84.5111 29.427 84.5111 26.6604C84.5111 22.6187 81.4772 19.3297 77.748 19.3297C74.0188 19.3297 70.9778 22.6187 70.9778 26.6604C70.9778 26.7325 70.944 27.1477 70.7366 28.9863C70.1513 34.1776 66.8875 34.2708 66.6294 34.2864C66.6125 34.2864 66.6294 34.2864 66.5941 34.2864C65.7718 34.2864 64.8931 34.2864 64.1428 33.1255C68.8791 29.1403 67.8508 25.4064 67.3614 24.254C66.463 22.1357 64.3388 20.8167 62.5278 21.2616C61.8762 21.4226 59.7746 22.2417 60.0821 26.0631C60.2937 28.6898 60.6237 30.753 61.1244 32.3347C60.9707 32.4378 60.8113 32.5409 60.6491 32.644C59.1455 33.5901 57.9086 34.1451 56.9735 34.292C56.1765 34.292 55.3345 34.251 54.6095 33.1312C59.343 29.1389 58.3134 25.405 57.824 24.2484C56.9255 22.1301 54.8014 20.8111 52.9903 21.2559C52.3387 21.4169 50.2371 22.236 50.5446 26.0574C50.7562 28.6841 51.0862 30.7474 51.5869 32.329C51.4332 32.4321 51.2738 32.5352 51.1116 32.6383C49.6109 33.5831 48.3725 34.1338 47.436 34.2849C46.6391 34.2849 45.797 34.244 45.0721 33.1241C49.8084 29.1389 48.7801 25.405 48.2907 24.2526C47.3923 22.1343 45.2695 20.8153 43.4571 21.2602C42.8055 21.4212 40.7039 22.2402 41.0114 26.0617C41.2229 28.6884 41.553 30.7516 42.0537 32.3333C41.9 32.4364 41.7406 32.5395 41.5784 32.6425C40.0339 33.6156 38.7716 34.1734 37.8266 34.3019C36.9366 34.4219 36.6799 34.1056 36.5699 33.97C35.3005 32.4039 36.4909 26.7325 37.7405 23.2034C37.8437 22.9125 37.8333 22.5933 37.7114 22.3097C37.5895 22.0262 37.3651 21.7992 37.0832 21.6742C36.8013 21.5492 36.4826 21.5355 36.191 21.6357C35.8994 21.736 35.6564 21.9428 35.5106 22.2148C34.536 24.038 33.8928 24.8542 33.536 25.2129C33.5219 25.1635 33.5078 25.1113 33.4937 25.0548C33.4974 23.6039 33.4183 22.154 33.2567 20.7122C33.2193 20.409 33.07 20.1307 32.8381 19.932C32.6062 19.7333 32.3085 19.6287 32.0034 19.6386C31.6984 19.6485 31.4081 19.7723 31.1895 19.9856C30.971 20.1988 30.84 20.4863 30.8223 20.7913C30.7348 22.2812 30.7461 23.9476 31.0423 25.2934C31.031 29.1064 30.4781 34.4728 27.7404 37.1065C26.3497 38.4467 24.5359 38.9127 22.1945 38.53C20.6656 38.2815 19.4949 37.4779 18.6148 36.077C16.3962 32.5465 16.4272 26.1577 17.1677 20.0725C18.4841 19.5302 19.8809 18.9823 21.3581 18.4287C33.2595 14 53.1102 8.59975 80.0936 8.03487C80.2542 8.03153 80.4125 7.99656 80.5596 7.93194C80.7067 7.86733 80.8396 7.77434 80.9508 7.65829C81.062 7.54223 81.1493 7.40538 81.2077 7.25556C81.266 7.10573 81.2944 6.94586 81.291 6.78507C81.2877 6.62428 81.2528 6.46572 81.1882 6.31845C81.1237 6.17118 81.0308 6.03808 80.9149 5.92675C80.799 5.81541 80.6623 5.72803 80.5127 5.66958C80.363 5.61113 80.2034 5.58277 80.0428 5.58611C52.7181 6.15805 32.5839 11.6374 20.5048 16.1339C19.4822 16.5138 18.5034 16.8936 17.5598 17.2707C18.2278 13.0695 19.1367 8.91027 20.282 4.81363C20.3736 4.50202 20.3379 4.16671 20.1826 3.88148C20.0273 3.59624 19.7653 3.38445 19.454 3.29268C19.1428 3.20092 18.8079 3.23671 18.523 3.39217C18.2382 3.54763 18.0266 3.81004 17.935 4.12165C16.6113 8.79202 15.6062 13.547 14.9265 18.3539C5.49198 22.3631 0.734524 25.7651 0.50321 25.9332C0.240048 26.1236 0.0632234 26.4109 0.0116438 26.7319C-0.0399358 27.0529 0.037953 27.3813 0.22817 27.6448C0.418387 27.9082 0.705352 28.0853 1.02594 28.1369C1.34653 28.1886 1.67447 28.1106 1.93764 27.9201C1.98982 27.882 6.23528 24.8472 14.595 21.1698C13.9871 27.2861 14.1719 33.5972 16.5457 37.3819C17.8052 39.3844 19.5739 40.5848 21.8038 40.9491C22.4299 41.0539 23.0634 41.1078 23.6981 41.1101C25.9717 41.1101 27.8984 40.3602 29.4429 38.8704C32.1566 36.2521 33.1185 31.7755 33.3921 27.9201C33.584 27.9154 33.7742 27.882 33.9563 27.8213C33.433 30.6457 33.2849 33.8133 34.6615 35.5136C35.2257 36.207 36.2849 36.9794 38.1467 36.7295C39.4585 36.5515 41.0043 35.892 42.8732 34.7157L43.0777 34.5843C44.096 36.1053 45.5248 36.7394 47.515 36.7394C47.5701 36.7396 47.6252 36.7363 47.68 36.7295C48.9917 36.5515 50.5376 35.892 52.4064 34.7157L52.6109 34.5843C53.6293 36.1053 55.0581 36.7394 57.0482 36.7394C57.1029 36.7396 57.1576 36.7363 57.2118 36.7295C58.5249 36.5515 60.0708 35.892 61.9396 34.7157L62.1442 34.5843C63.1625 36.1053 64.5913 36.7394 66.5814 36.7394C66.951 36.7394 69.0469 36.6193 70.9651 34.0802V40.1089C69.8523 40.3381 68.8027 40.807 67.8889 41.4829C65.1287 43.4967 63.4799 47.1318 62.989 52.3004C62.9618 52.585 63.0349 52.8702 63.1957 53.1064C63.3564 53.3427 63.5947 53.5152 63.8692 53.594C64.3984 53.7274 64.9426 53.7919 65.4883 53.7861C66.9522 53.7985 68.3797 53.3297 69.5519 52.4515C70.0848 52.0433 70.5594 51.5639 70.9623 51.0266V65.1035C69.0328 66.0059 64.8508 69.0478 63.9354 78.6607C63.9048 78.9839 64.0036 79.306 64.2102 79.5563C64.4168 79.8066 64.7142 79.9644 65.037 79.9952C65.1219 80.0031 65.2071 80.0064 65.2923 80.0051C65.9623 80.0051 67.8311 79.8441 69.6139 78.2243C72.1316 75.9337 73.408 71.8044 73.408 65.9494V62.7804C73.7879 63.2863 74.2376 63.7356 74.7437 64.1149C75.7342 64.8525 76.9367 65.2489 78.1711 65.2447C78.6472 65.2506 79.1218 65.1907 79.5816 65.0668C79.8505 64.9839 80.0827 64.8106 80.2389 64.5763C80.3951 64.3419 80.4659 64.0608 80.4391 63.7803C79.5449 54.3764 75.5138 52.0731 73.4137 51.5138V33.0041C73.6097 33.1651 73.8128 33.3232 74.0329 33.4786C76.0794 34.9218 79.638 36.3524 84.9737 34.9797C86.6098 34.5561 88.0852 33.5958 89.3758 32.1243C89.892 33.1622 90.5154 34.0392 91.27 34.6521C92.3983 35.57 94.2982 36.327 96.9358 34.7171L97.1572 34.5759C98.1756 36.094 99.6043 36.7281 101.593 36.7281C101.917 36.7281 102.228 36.5991 102.458 36.3694C102.687 36.1398 102.816 35.8284 102.816 35.5037C102.816 35.1789 102.687 34.8675 102.458 34.6379C102.228 34.4083 101.917 34.2793 101.593 34.2793L101.599 34.2849ZM43.45 25.8583C43.3513 24.6424 43.5911 23.7499 44.041 23.6397C44.0917 23.627 44.1439 23.6208 44.1962 23.6214C44.7293 23.6214 45.5953 24.1608 46.0396 25.2087C46.7449 26.8807 46.0396 28.8197 44.1341 30.6683C43.8506 29.4905 43.6165 27.9286 43.45 25.8583ZM52.9833 25.8583C52.8845 24.6424 53.1243 23.7499 53.5743 23.6397C53.625 23.627 53.6771 23.6208 53.7294 23.6214C54.2626 23.6214 55.1286 24.1608 55.5729 25.2087C56.2781 26.8807 55.5729 28.8197 53.6674 30.6683C53.3839 29.4905 53.1497 27.9286 52.9833 25.8583ZM62.5165 25.8583C62.4178 24.6424 62.6576 23.7499 63.1075 23.6397C63.1582 23.6269 63.2104 23.6207 63.2626 23.6214C63.7958 23.6214 64.6618 24.1608 65.1061 25.2087C65.8113 26.8807 65.1061 28.8197 63.2006 30.6683C62.9171 29.4905 62.683 27.9286 62.5165 25.8583ZM68.1174 50.4674C67.3869 51.0237 66.4964 51.3288 65.5786 51.3373C66.4771 44.9697 69.3036 43.1465 70.9454 42.6325C70.7536 46.492 69.7804 49.1865 68.1174 50.4674ZM68.0384 76.3588C67.6141 76.7624 67.1174 77.082 66.5744 77.3007C67.4009 71.6519 69.4616 69.1099 70.9129 67.9801C70.6125 72.8989 69.2246 75.2417 68.0384 76.3588ZM77.8693 62.7875C77.2542 62.7282 76.6679 62.4978 76.1767 62.1223C75.0329 61.2538 73.6873 59.1567 73.4574 54.118C74.858 54.7775 77.0569 56.7757 77.8693 62.7832V62.7875ZM77.7367 21.7813C80.1176 21.7813 82.0541 23.9702 82.0541 26.6619C82.0541 29.3535 80.1176 31.5424 77.7367 31.5424C75.3559 31.5424 73.4193 29.3535 73.4193 26.6619C73.4193 23.9702 75.3559 21.777 77.7367 21.777V21.7813ZM90.0908 26.0998C89.5478 23.0876 89.301 19.3311 89.4124 15.2385C89.5958 8.51644 90.6945 3.84345 91.5069 2.64448C91.8553 3.24043 92.4322 4.90401 92.6353 8.43452C92.8247 12.384 92.5406 16.3419 91.789 20.2236C91.408 22.2313 90.8395 24.1986 90.0908 26.0998ZM98.2207 30.7177C97.9386 29.5343 97.6946 27.9569 97.5253 25.8583C97.428 24.6579 97.6664 23.7781 98.1078 23.6708C98.1568 23.6592 98.207 23.6535 98.2574 23.6539C98.806 23.6539 99.7271 24.2314 100.174 25.3146C100.864 26.9895 100.14 28.9087 98.2193 30.7177H98.2207Z" fill="white"/>
</g>
<path d="M89.099 45.298C87.997 45.298 87.104 45.792 86.42 46.628V41.555C86.42 40.947 85.945 40.453 85.356 40.453C84.748 40.453 84.254 40.947 84.254 41.555V52.974C84.254 53.582 84.748 54.095 85.356 54.095C85.945 54.095 86.42 53.582 86.42 52.974V48.528C86.857 47.673 87.579 47.179 88.377 47.179C89.346 47.179 89.916 47.806 89.916 48.813V52.974C89.916 53.582 90.41 54.095 90.999 54.095C91.588 54.095 92.082 53.582 92.082 52.974V48.357C92.082 46.381 90.714 45.298 89.099 45.298ZM99.4357 54.19C101.982 54.19 103.939 52.309 103.939 49.725C103.939 47.141 101.982 45.298 99.4357 45.298C96.9087 45.298 94.9517 47.141 94.9517 49.725C94.9517 52.309 96.9087 54.19 99.4357 54.19ZM99.4357 52.29C98.2197 52.29 97.1557 51.34 97.1557 49.725C97.1557 48.091 98.2197 47.179 99.4357 47.179C100.671 47.179 101.735 48.091 101.735 49.725C101.735 51.34 100.671 52.29 99.4357 52.29ZM116.779 45.279C115.62 45.279 114.746 45.735 113.986 46.704C113.492 45.697 112.504 45.279 111.516 45.279C110.452 45.279 109.654 45.754 109.027 46.552V46.514C109.027 45.906 108.552 45.412 107.944 45.412C107.355 45.412 106.861 45.906 106.861 46.514V52.974C106.861 53.582 107.355 54.095 107.944 54.095C108.552 54.095 109.027 53.582 109.027 52.974V48.414C109.426 47.654 110.034 47.198 110.775 47.198C111.478 47.198 112.162 47.578 112.162 48.756V52.974C112.162 53.582 112.656 54.095 113.245 54.095C113.834 54.095 114.328 53.582 114.328 52.974V48.376C114.727 47.654 115.335 47.198 116.057 47.198C116.779 47.198 117.463 47.578 117.463 48.775V52.974C117.463 53.582 117.957 54.095 118.546 54.095C119.135 54.095 119.629 53.582 119.629 52.974V48.319C119.629 46.153 118.242 45.279 116.779 45.279ZM126.826 45.298C124.299 45.298 122.494 47.179 122.494 49.725C122.494 52.423 124.508 54.19 127.168 54.19C128.118 54.19 128.973 53.981 129.6 53.677C130.018 53.487 130.227 53.145 130.227 52.784C130.227 52.309 129.866 51.91 129.372 51.91C129.163 51.91 128.992 51.967 128.688 52.043C128.346 52.157 127.871 52.29 127.339 52.29C125.914 52.29 124.85 51.549 124.622 50.162H129.41C129.904 50.162 130.227 50.105 130.436 49.858C130.626 49.63 130.683 49.383 130.683 49.06C130.683 47.103 129.258 45.298 126.826 45.298ZM124.679 48.775C124.926 47.654 125.686 46.989 126.788 46.989C127.985 46.989 128.726 47.806 128.745 48.775H124.679Z" fill="#10DD8E"/>
<defs>
<clipPath id="clip0">
<rect width="102.857" height="80" fill="white"/>
</clipPath>
</defs>
</svg>
