<svg width="19" height="16" viewBox="0 0 19 16" fill="none" xmlns="http://www.w3.org/2000/svg">
<path d="M18.5714 8.87813C19.1429 8.37138 19.1429 7.61124 18.5714 7.10448L10.8571 0.389945C9.52381 -0.79249 7.47619 0.981163 8.85714 2.1636L13.381 6.1332C13.7619 6.47104 13.619 6.72441 13.0952 6.72441L1.42857 6.72441C0.619048 6.72441 1.99566e-07 7.2734 1.91005e-07 7.99131C1.82444e-07 8.70922 0.619048 9.2582 1.42857 9.2582L13.0476 9.2582C13.5714 9.2582 13.7143 9.51158 13.3333 9.84942L8.80952 13.819C7.47619 15.0015 9.47619 16.8173 10.8095 15.5927L18.5714 8.87813Z" fill="#040328"/>
</svg>
