<svg width="55" height="54" viewBox="0 0 55 54" fill="none" xmlns="http://www.w3.org/2000/svg">
<g clip-path="url(#clip0)">
<path d="M35.9286 24.065L54.2662 2.74604C54.5478 2.43018 54.698 2.01861 54.6861 1.59563C54.6741 1.17266 54.5008 0.770256 54.2018 0.470821C53.9028 0.171386 53.5007 -0.0023997 53.0778 -0.0150097C52.6548 -0.0276197 52.243 0.121905 51.9268 0.402996L30.6113 18.7442L35.9286 24.065Z" fill="#040328"/>
<path d="M19.5703 28.2482L18.3935 29.261C17.7262 29.8349 17.191 30.5464 16.8247 31.3467C16.4584 32.147 16.2697 33.017 16.2715 33.8971V35.6125L19.0817 38.4227H20.7721C21.6536 38.422 22.5244 38.2305 23.3247 37.8611C24.1251 37.4917 24.8359 36.9533 25.4082 36.2829L26.4318 35.0918L19.5703 28.2482Z" fill="#040328"/>
<path d="M51.6212 42.2742L11.8505 2.50706C11.2132 1.87464 10.3517 1.51978 9.4539 1.51978C8.55608 1.51978 7.69476 1.87464 7.05749 2.50706L4.10106 5.46349C3.46603 6.09939 3.10938 6.96132 3.10938 7.85999C3.10938 8.75867 3.46603 9.6206 4.10106 10.2565L6.70435 12.8599L10.5917 8.97266L11.3049 9.68591L7.41759 13.5731L11.5759 17.7599L13.2092 16.123L13.9225 16.8362L12.2891 18.4696L16.4688 22.6527L20.356 18.7655L21.0693 19.4788L17.1821 23.366L21.3653 27.5492L22.9985 25.9123L23.7117 26.6255L22.0785 28.2624L26.2581 32.4421L30.1452 28.5549L30.8585 29.2681L26.9107 33.0947L31.0939 37.2779L32.7273 35.641L33.4405 36.3543L31.8072 37.9912L35.9869 42.1708L39.8775 38.2836L40.5908 38.9969L36.7036 42.884L40.8868 47.0673L42.5201 45.4303L43.2334 46.1436L41.6 47.7805L43.9003 50.0807C44.5376 50.7131 45.3989 51.068 46.2967 51.068C47.1946 51.068 48.0561 50.7131 48.6933 50.0807L51.6532 47.1243C51.9738 46.806 52.2277 46.4271 52.3999 46.0095C52.5721 45.5919 52.6592 45.1442 52.6562 44.6925C52.6533 44.2408 52.5602 43.7943 52.3825 43.379C52.2048 42.9638 51.9459 42.5882 51.6212 42.2742V42.2742Z" fill="white"/>
<path d="M4.96113 40.3092C4.96113 45.9867 0.681641 52.1527 0.681641 52.1527L1.03826 52.5093L9.01233 44.3783L8.87685 43.961C8.86131 43.8643 8.85285 43.7666 8.85178 43.6686C8.85107 43.2347 8.97915 42.8103 9.21972 42.4491C9.46029 42.088 9.80252 41.8064 10.2032 41.6398C10.6039 41.4733 11.0451 41.4293 11.4707 41.5135C11.8964 41.5977 12.2875 41.8063 12.5946 42.1129C12.9017 42.4195 13.111 42.8103 13.1959 43.2359C13.2808 43.6614 13.2376 44.1026 13.0717 44.5036C12.9058 44.9045 12.6247 45.2472 12.2639 45.4884C11.9032 45.7296 11.4789 45.8583 11.045 45.8583C10.9327 45.8578 10.8206 45.8482 10.7098 45.8297L10.3068 45.6015L2.17587 53.6434L2.5325 54C2.5325 54 8.69851 49.7205 14.376 49.7205L17.2967 40.1808L14.49 37.3742L4.96113 40.3092Z" fill="#040328"/>
</g>
<defs>
<clipPath id="clip0">
<rect width="53.9786" height="54" fill="white" transform="translate(0.691406)"/>
</clipPath>
</defs>
</svg>
