<svg width="38" height="39" viewBox="0 0 38 39" fill="none" xmlns="http://www.w3.org/2000/svg">
<circle cx="19" cy="19.5" r="19" fill="#2F80ED"/>
<g clip-path="url(#clip0)">
<path d="M26.2911 12.1864H15.7774C15.8342 12.0214 15.8682 11.845 15.8682 11.6609C15.8682 10.7441 15.134 10 14.2295 10H12.2199C11.3191 10 10.5849 10.7441 10.5849 11.6609C10.5849 11.8987 10.6341 12.1212 10.7249 12.3245C9.15431 12.7617 8 14.2155 8 15.9454V23.2448C8 25.3161 9.66145 27.0038 11.7089 27.0038H26.2911C28.3348 27.0038 30 25.3199 30 23.2448V15.9454C30 13.8703 28.3348 12.1864 26.2911 12.1864ZM12.2236 11.1507H14.2333C14.5095 11.1507 14.7366 11.3809 14.7366 11.6609C14.7366 11.9409 14.5095 12.171 14.2333 12.171H12.2236C11.9474 12.171 11.7203 11.9409 11.7203 11.6609C11.7203 11.3809 11.9474 11.1507 12.2236 11.1507ZM28.8646 23.2448C28.8646 24.6832 27.7103 25.8531 26.2911 25.8531H11.7089C10.2897 25.8531 9.13539 24.6832 9.13539 23.2448V15.9454C9.13539 14.507 10.2897 13.3371 11.7089 13.3371H26.2911C27.7103 13.3371 28.8646 14.507 28.8646 15.9454V23.2448Z" fill="white"/>
<path d="M18.999 16.1755C17.1408 16.1755 15.627 17.7098 15.627 19.5932C15.627 21.4765 17.1408 23.0108 18.999 23.0108C20.8573 23.0108 22.3711 21.4765 22.3711 19.5932C22.3711 17.7098 20.8573 16.1755 18.999 16.1755ZM18.999 21.8601C17.7653 21.8601 16.7623 20.8436 16.7623 19.5932C16.7623 18.3427 17.7653 17.3263 18.999 17.3263C20.2328 17.3263 21.2358 18.3427 21.2358 19.5932C21.2358 20.8436 20.2328 21.8601 18.999 21.8601Z" fill="white"/>
<path d="M26.0787 14.3766C25.1477 14.3766 24.3945 15.1437 24.3945 16.0835C24.3945 17.0232 25.1515 17.7904 26.0787 17.7904C27.0059 17.7904 27.7628 17.0232 27.7628 16.0835C27.7628 15.1437 27.0059 14.3766 26.0787 14.3766ZM26.0787 16.6397C25.7759 16.6397 25.5299 16.3904 25.5299 16.0835C25.5299 15.7766 25.7759 15.5273 26.0787 15.5273C26.3815 15.5273 26.6275 15.7766 26.6275 16.0835C26.6275 16.3904 26.3815 16.6397 26.0787 16.6397Z" fill="white"/>
</g>
<defs>
<clipPath id="clip0">
<rect width="22" height="17" fill="white" transform="translate(8 10)"/>
</clipPath>
</defs>
</svg>
