<svg width="66" height="58" viewBox="0 0 66 58" fill="none" xmlns="http://www.w3.org/2000/svg">
<path d="M9.20312 26.1505C9.20312 26.1505 26.8043 58.6915 60.0085 28.9183C60.0085 28.9183 40.137 -1.59047 9.20312 26.1505Z" fill="white"/>
<path d="M42.2789 22.0436C42.1507 22.5047 41.9134 22.928 41.5868 23.2778C41.2601 23.6275 40.8539 23.8933 40.4027 24.0527C39.9514 24.212 39.4684 24.2602 38.9946 24.1932C38.5207 24.1261 38.07 23.9458 37.6807 23.6674C37.2914 23.3891 36.9751 23.021 36.7584 22.5943C36.5416 22.1677 36.431 21.6951 36.4358 21.2165C36.4406 20.738 36.5607 20.2677 36.786 19.8455C37.0113 19.4233 37.3351 19.0616 37.7299 18.7912C35.783 18.1295 33.6763 18.1029 31.7132 18.7153C29.7502 19.3277 28.0321 20.5474 26.8068 22.1988C25.5815 23.8501 24.912 25.8479 24.8949 27.9041C24.8777 29.9604 25.5139 31.969 26.7115 33.6405C27.9091 35.3121 29.6065 36.5603 31.559 37.2054C33.5115 37.8504 35.6184 37.859 37.5761 37.2298C39.5338 36.6006 41.2413 35.3662 42.4524 33.7044C43.6636 32.0426 44.3158 30.0392 44.3154 27.9829C44.3175 25.8315 43.6007 23.741 42.2789 22.0436V22.0436Z" fill="#040328"/>
<path d="M2 16V7C2 4.23858 4.23858 2 7 2H14.5" stroke="#040328" stroke-width="3"/>
<path d="M64.5 42L64.5 51C64.5 53.7614 62.2614 56 59.5 56L52 56" stroke="#040328" stroke-width="3"/>
<path d="M2 42V51C2 53.7614 4.23858 56 7 56H14.5" stroke="#040328" stroke-width="3"/>
<path d="M64.5 16L64.5 7C64.5 4.23858 62.2614 2 59.5 2L52 2" stroke="#040328" stroke-width="3"/>
</svg>
