<svg width="34" height="34" viewBox="0 0 34 34" fill="none" xmlns="http://www.w3.org/2000/svg">
<g clip-path="url(#clip0)">
<path d="M32.0505 14.1219L29.1937 12.9803C28.9917 12.3744 28.7473 11.789 28.4604 11.2284L29.6766 8.39206C30.1772 7.22707 29.9167 5.87474 29.0195 4.97904C28.1223 4.08187 26.7715 3.82282 25.6065 4.3219L22.7028 5.56739C22.173 5.30834 21.6241 5.08588 21.0563 4.90147L19.8766 1.94946C19.4083 0.772761 18.2682 0 17.0007 0C15.7333 0 14.5917 0.772761 14.1219 1.94946L12.9042 4.99806C12.3964 5.17662 11.9046 5.38591 11.429 5.62447L8.39353 4.3219C7.22853 3.82136 5.8762 4.08187 4.9805 4.97904C4.08334 5.8762 3.82429 7.22707 4.32336 8.39206L5.6552 11.4948C5.44152 11.9383 5.25419 12.3964 5.0932 12.8662L1.95093 14.1219C0.772761 14.5917 0 15.7318 0 17.0007C0 18.2682 0.772761 19.4083 1.94946 19.8796L5.09173 21.1353C5.25272 21.6051 5.44152 22.0632 5.65374 22.5067L4.3219 25.6094C3.82136 26.7744 4.08187 28.1267 4.97904 29.0224C5.8762 29.9196 7.22707 30.1786 8.39206 29.6796L11.4275 28.377C11.9031 28.6156 12.3964 28.8249 12.9028 29.0034L14.1204 32.052C14.5903 33.2287 15.7304 34.0015 16.9993 34.0015C18.2682 34.0015 19.4068 33.2287 19.8781 32.052L21.0577 29.1C21.6256 28.9156 22.1744 28.6931 22.7042 28.4341L25.6079 29.6796C26.7729 30.1801 28.1253 29.9196 29.021 29.0224C29.9181 28.1253 30.1772 26.7744 29.6781 25.6094L28.4619 22.773C28.7487 22.2125 28.9932 21.6271 29.1951 21.0211L32.052 19.8796C33.2287 19.4098 34.0015 18.2696 34.0015 17.0007C34 15.7318 33.2287 14.5917 32.0505 14.1219ZM22.5579 17.0007C22.5579 20.001 20.1254 22.4349 17.1237 22.4349C14.1219 22.4349 11.6895 20.0025 11.6895 17.0007C11.6895 14.0004 14.1219 11.5665 17.1237 11.5665C20.1254 11.5665 22.5579 13.999 22.5579 17.0007Z" fill="#10995E"/>
</g>
<defs>
<clipPath id="clip0">
<rect width="34" height="34" fill="white"/>
</clipPath>
</defs>
</svg>
